<?xml version="1.0" standalone="no"?><!DOCTYPE svg PUBLIC "-//W3C//DTD SVG 1.1//EN" "http://www.w3.org/Graphics/SVG/1.1/DTD/svg11.dtd"><svg t="1651125379415" class="icon" viewBox="0 0 1024 1024" version="1.1" xmlns="http://www.w3.org/2000/svg" p-id="33322" xmlns:xlink="http://www.w3.org/1999/xlink" width="200" height="200"><defs><style type="text/css"></style></defs><path d="M754.25 20L30 767.562 222 940l724-737.344z" fill="#A0D468" p-id="33323"></path><path d="M958 213.344L202 940l60 48 744-733.312z" fill="#FFCE54" p-id="33324"></path><path d="M176.68 734.04h70.66v69.312H176.68zM298.68 608.04h67.328v72.66H298.68zM476 423.32h73.312v77.344H476zM591.34 306H672v75.344h-80.66zM718 185.34h70.68V262H718z" fill="#656D78" p-id="33325"></path><path d="M767.562 0L0 767.562 256.454 1024 1024 256.438 767.562 0z m165.876 256.5l15.126-15.126 15.126 15.062-0.062 0.062c-8.346-8.31-21.846-8.31-30.19 0.002zM651.562 568.562c-8.344-8.312-21.876-8.312-30.188 0s-8.312 21.844 0 30.188l-15.062 15.062c-8.376-8.312-21.876-8.312-30.188 0-8.312 8.344-8.312 21.844 0 30.188l-17.968 17.938-15.094-15.062 123.562-123.562c-8.312 8.344-8.312 21.844 0 30.188l-15.062 15.06z m-138.672 138.656c-8.312-8.344-21.812-8.344-30.14-0.032l30.14-30.126 15.094 15.062-15.094 15.096z m-45.25 45.25c-8.328-8.344-21.844-8.344-30.172 0s-8.328 21.844 0 30.156l-15.078 15.094c-8.328-8.344-21.828-8.344-30.172 0l90.484-90.468c-8.312 8.312-8.296 21.812 0.016 30.126l-15.078 15.092zM377.126 843c-8.312-8.344-21.812-8.344-30.14-0.062l45.218-45.188c-8.312 8.312-8.312 21.812 0.016 30.126l-15.094 15.124zM767.562 60.344l45.376 45.344c-6.626 8.376-6.062 20.562 1.656 28.312 7.718 7.718 19.906 8.25 28.282 1.656l0.25 0.218c-6.626 8.376-6.094 20.562 1.626 28.282 7.75 7.718 19.938 8.282 28.312 1.656l45.344 45.376-405.516 405.5-30.156-30.156h-0.016a21.294 21.294 0 0 0-30.156 0c-8.344 8.344-8.344 21.844 0 30.156l30.156 30.188-271.516 271.53-45.266-45.25c8.328-8.344 8.328-21.844 0-30.156-8.328-8.344-21.828-8.344-30.172 0 8.344-8.344 8.344-21.876 0-30.188-8.328-8.312-21.828-8.312-30.156 0l-45.266-45.25L767.562 60.344zM241.376 948.562l105.562-105.562c-8.312 8.344-8.296 21.812 0.016 30.156l-15.078 15.094c-8.328-8.344-21.844-8.344-30.172 0-8.328 8.312-8.328 21.812 0 30.156l-15.078 15.094c-8.328-8.344-21.844-8.344-30.172 0-8.328 8.312-8.328 21.812 0 30.156l-15.078-15.094z m500.686-470.5c-8.344-8.344-21.844-8.312-30.188 0-8.312 8.312-8.312 21.812 0 30.188l-15.062 15.062c-8.344-8.312-21.812-8.312-30.188 0l90.5-90.5c-8.312 8.312-8.312 21.812 0 30.156l-15.062 15.094z m181-181.03c-8.312-8.344-21.812-8.344-30.156 0s-8.344 21.844 0 30.156l-15.094 15.126c-8.312-8.344-21.812-8.344-30.156 0-8.344 8.312-8.344 21.812 0 30.156l-15.094 15.094c-8.312-8.344-21.812-8.344-30.188 0-8.312 8.312-8.312 21.812 0 30.156l-15.062 15.094c-8.312-8.344-21.844-8.344-30.188 0l176.312-176.312c-8.312 8.344-8.312 21.844 0 30.188l-10.374 10.342z" fill="" p-id="33326"></path><path d="M301.704 767.562l-90.5-90.5-90.516 90.5 90.516 90.5 90.5-90.5z m-90.5-30.186l30.156 30.188-30.156 30.156-30.172-30.156 30.172-30.188zM422.39 646.876l-90.516-90.5-90.5 90.5 90.5 90.5 90.516-90.5z m-90.514-30.188l30.172 30.188-30.172 30.188-30.172-30.188 30.172-30.188zM603.406 465.876l-90.516-90.532-90.5 90.532 90.5 90.5 90.516-90.5z m-90.516-30.188l30.172 30.188-30.172 30.156-30.156-30.156 30.156-30.188zM724.094 345.188l-90.532-90.5-90.5 90.5 90.5 90.5 90.532-90.5zM633.562 315l30.188 30.188-30.188 30.156-30.156-30.156 30.156-30.188zM844.75 224.5L754.25 134l-90.5 90.5 90.5 90.5 90.5-90.5z m-120.688 0l30.188-30.188 30.188 30.188-30.188 30.188-30.188-30.188z" fill="" p-id="33327"></path></svg>