<?xml version="1.0" standalone="no"?><!DOCTYPE svg PUBLIC "-//W3C//DTD SVG 1.1//EN" "http://www.w3.org/Graphics/SVG/1.1/DTD/svg11.dtd"><svg t="1651116796969" class="icon" viewBox="0 0 1024 1024" version="1.1" xmlns="http://www.w3.org/2000/svg" p-id="3303" xmlns:xlink="http://www.w3.org/1999/xlink" width="200" height="200"><defs><style type="text/css"></style></defs><path d="M712 288v544c0 22.4-17.6 40-40 40H352c-22.4 0-40-17.6-40-40V288c0-22.4 17.6-40 40-40h320c22.4 0 40 17.6 40 40zM432 152h160v96H432z" fill="#FFFFFF" p-id="3304"></path><path d="M672 872c22.4 0 40-17.6 40-40V288c0-22.4-17.6-40-40-40h-40v584c0 22.4 17.6 40 40 40z" fill="#C3DBEA" p-id="3305"></path><path d="M712 752v80c0 22.4-17.6 40-40 40H352c-22.4 0-40-17.6-40-40V752c0-22.4 17.6-40 40-40h320c22.4 0 40 17.6 40 40z" fill="#FF697D" p-id="3306"></path><path d="M672 792c22.4 0 40-17.6 40-40s-17.6-40-40-40h-40v40c0 22.4 17.6 40 40 40z" fill="#A66366" p-id="3307"></path><path d="M672 896H352c-35.2 0-64-28.8-64-64V288c0-35.2 28.8-64 64-64h320c35.2 0 64 28.8 64 64v544c0 35.2-28.8 64-64 64zM352 272c-8.8 0-16 7.2-16 16v544c0 8.8 7.2 16 16 16h320c8.8 0 16-7.2 16-16V288c0-8.8-7.2-16-16-16H352z" fill="#3F4A54" p-id="3308"></path><path d="M392 816c-13.6 0-24-10.4-24-24V712c0-13.6 10.4-24 24-24s24 10.4 24 24v80c0 13.6-10.4 24-24 24zM392 656c-6.4 0-12.8-2.4-16.8-7.2-4.8-4-7.2-10.4-7.2-16.8 0-1.6 0-3.2 0.8-4.8 0-1.6 0.8-3.2 1.6-4.8 0.8-1.6 1.6-2.4 2.4-4 0.8-1.6 1.6-2.4 3.2-4 8.8-8.8 24.8-8.8 33.6 0 0.8 0.8 2.4 2.4 3.2 4 0.8 1.6 1.6 2.4 2.4 4 0.8 1.6 0.8 3.2 1.6 4.8 0 1.6 0.8 3.2 0.8 4.8 0 6.4-2.4 12.8-7.2 16.8-5.6 4.8-12 7.2-18.4 7.2z" fill="#FFFFFF" p-id="3309"></path><path d="M592 272c-13.6 0-24-10.4-24-24v-72H456v8c0 13.6-10.4 24-24 24s-24-10.4-24-24v-32c0-13.6 10.4-24 24-24h160c13.6 0 24 10.4 24 24v96c0 13.6-10.4 24-24 24z" fill="#3F4A54" p-id="3310"></path></svg>