<?xml version="1.0" standalone="no"?><!DOCTYPE svg PUBLIC "-//W3C//DTD SVG 1.1//EN" "http://www.w3.org/Graphics/SVG/1.1/DTD/svg11.dtd"><svg t="1651116841608" class="icon" viewBox="0 0 1024 1024" version="1.1" xmlns="http://www.w3.org/2000/svg" p-id="3469" xmlns:xlink="http://www.w3.org/1999/xlink" width="200" height="200"><defs><style type="text/css"></style></defs><path d="M712 288v544c0 22.4-17.6 40-40 40H352c-22.4 0-40-17.6-40-40V288c0-22.4 17.6-40 40-40h320c22.4 0 40 17.6 40 40zM432 152h160v96H432z" fill="#FFFFFF" p-id="3470"></path><path d="M672 632c22.4 0 40-17.6 40-40V288c0-22.4-17.6-40-40-40h-40v344c0 22.4 17.6 40 40 40z" fill="#C3DBEA" p-id="3471"></path><path d="M712 592v240c0 22.4-17.6 40-40 40H352c-22.4 0-40-17.6-40-40V592c0-22.4 17.6-40 40-40h320c22.4 0 40 17.6 40 40z" fill="#FFDD77" p-id="3472"></path><path d="M672 792c22.4 0 40-17.6 40-40V592c0-22.4-17.6-40-40-40h-40v200c0 22.4 17.6 40 40 40z" fill="#ECA875" p-id="3473"></path><path d="M672 896H352c-35.2 0-64-28.8-64-64V288c0-35.2 28.8-64 64-64h320c35.2 0 64 28.8 64 64v544c0 35.2-28.8 64-64 64zM352 272c-8.8 0-16 7.2-16 16v544c0 8.8 7.2 16 16 16h320c8.8 0 16-7.2 16-16V288c0-8.8-7.2-16-16-16H352z" fill="#3F4A54" p-id="3474"></path><path d="M392 816c-13.6 0-24-10.4-24-24v-40c0-13.6 10.4-24 24-24s24 10.4 24 24v40c0 13.6-10.4 24-24 24zM392 656c-1.6 0-3.2 0-4.8-0.8-1.6 0-3.2-0.8-4.8-1.6-1.6-0.8-2.4-1.6-4-2.4-1.6-0.8-2.4-1.6-3.2-3.2l-3.2-3.2c-0.8-1.6-1.6-2.4-2.4-4-0.8-1.6-0.8-3.2-1.6-4.8 0-1.6-0.8-3.2-0.8-4.8 0-1.6 0-3.2 0.8-4.8 0-1.6 0.8-3.2 1.6-4.8 0.8-1.6 1.6-2.4 2.4-4 0.8-1.6 1.6-2.4 3.2-3.2s2.4-2.4 3.2-3.2c1.6-0.8 2.4-1.6 4-2.4 1.6-0.8 3.2-0.8 4.8-1.6 3.2-0.8 6.4-0.8 9.6 0 1.6 0 3.2 0.8 4.8 1.6 1.6 0.8 3.2 1.6 4 2.4 1.6 0.8 2.4 1.6 3.2 3.2 4.8 4.8 7.2 10.4 7.2 16.8 0 1.6 0 3.2-0.8 4.8 0 1.6-0.8 3.2-1.6 4.8-0.8 1.6-1.6 3.2-2.4 4-0.8 1.6-1.6 2.4-3.2 3.2l-3.2 3.2c-1.6 0.8-2.4 1.6-4 2.4-1.6 0.8-3.2 0.8-4.8 1.6-0.8 0.8-2.4 0.8-4 0.8z" fill="#FFFFFF" p-id="3475"></path><path d="M592 272c-13.6 0-24-10.4-24-24v-72H456v8c0 13.6-10.4 24-24 24s-24-10.4-24-24v-32c0-13.6 10.4-24 24-24h160c13.6 0 24 10.4 24 24v96c0 13.6-10.4 24-24 24z" fill="#3F4A54" p-id="3476"></path></svg>